#Comment line ignore any data following # character 
#Hierarchical Translation and Rotation (.htr) file 
[Header]	
#Header keywords are followed by a single value 
FileType HTR		#Single word string
DataType HTRS		#Translation followed by rotation and scale data
FileVersion 1		#integer
NumSegments 84		#integer
NumFrames 2		#integer
DataFrameRate 30		#integer, data frame rate in this file
EulerRotationOrder ZYX
CalibrationUnits mm
RotationUnits Degrees
GlobalAxisofGravity Y
BoneLengthAxis Y
ScaleFactor 1.00
[SegmentNames&Hierarchy]
#CHILD	PARENT
MASTER GLOBAL
root MASTER
chest root
L_mid_tent01 root
R_mid_tent01 root
spine01 root
Bip01_Neck chest
L_humerus chest
R_humerus chest
weapon_bone chest
Bip01_Head Bip01_Neck
eye_left_bone Bip01_Head
eye_right_bone Bip01_Head
L_forearm L_humerus
L_front_hand L_forearm
L_weapon_bone L_forearm
L_front_hand01_01 L_front_hand
L_front_hand02_01 L_front_hand
L_front_hand03_01 L_front_hand
L_front_hand01_02 L_front_hand01_01
L_front_hand02_02 L_front_hand02_01
L_front_hand03_02 L_front_hand03_01
R_forearm R_humerus
R_front_hand R_forearm
R_weapon_bone R_forearm
R_front_hand01_01 R_front_hand
R_front_hand02_01 R_front_hand
R_front_hand03_01 R_front_hand
R_front_hand01_02 R_front_hand01_01
R_front_hand02_02 R_front_hand02_01
R_front_hand03_02 R_front_hand03_01
null_rope01_connect L_mid_tent01
Rope1_Seg01 null_rope01_connect
Rope1_Seg02 Rope1_Seg01
Rope1_Seg03 Rope1_Seg02
Rope1_Seg04 Rope1_Seg03
Rope1_Seg05 Rope1_Seg04
Rope1_Seg06 Rope1_Seg05
Rope1_Seg07 Rope1_Seg06
Rope1_Seg09 Rope1_Seg07
L_mid_hand01 Rope1_Seg09
L_mid_hand02 Rope1_Seg09
L_mid_hand03 Rope1_Seg09
null_rope02_connect R_mid_tent01
Rope2_Seg01 null_rope02_connect
Rope2_Seg02 Rope2_Seg01
Rope2_Seg03 Rope2_Seg02
Rope2_Seg04 Rope2_Seg03
Rope2_Seg05 Rope2_Seg04
Rope2_Seg06 Rope2_Seg05
Rope2_Seg07 Rope2_Seg06
Rope2_Seg09 Rope2_Seg07
R_mid_hand01 Rope2_Seg09
R_mid_hand02 Rope2_Seg09
R_mid_hand03 Rope2_Seg09
spine02 spine01
spine03 spine02
pelvis spine03
null_rope03_connect pelvis
null_rope04_connect pelvis
Rope3_Seg01 null_rope03_connect
Rope3_Seg02 Rope3_Seg01
Rope3_Seg03 Rope3_Seg02
Rope3_Seg04 Rope3_Seg03
Rope3_Seg05 Rope3_Seg04
Rope3_Seg06 Rope3_Seg05
Rope3_Seg07 Rope3_Seg06
Rope3_Seg08 Rope3_Seg07
Rope3_Seg09 Rope3_Seg08
R_rear_hand01 Rope3_Seg09
R_rear_hand02 Rope3_Seg09
R_rear_hand03 Rope3_Seg09
Rope4_Seg01 null_rope04_connect
Rope4_Seg02 Rope4_Seg01
Rope4_Seg03 Rope4_Seg02
Rope4_Seg04 Rope4_Seg03
Rope4_Seg05 Rope4_Seg04
Rope4_Seg06 Rope4_Seg05
Rope4_Seg07 Rope4_Seg06
Rope4_Seg08 Rope4_Seg07
Rope4_Seg09 Rope4_Seg08
L_rear_hand01 Rope4_Seg09
L_rear_hand02 Rope4_Seg09
L_rear_hand03 Rope4_Seg09
[BasePosition]
#SegmentName Tx, Ty, Tz, Rx, Ry, Rz, BoneLength
MASTER 0.000000 0.000000 0.000000 -90.000000 0.000000 0.000000 10.000000 
root 0.000000 0.000000 0.000000 0.000000 0.000000 0.000000 10.000000 
chest 0.000000 0.000000 0.000000 0.000000 0.000000 0.000000 10.000000 
L_mid_tent01 0.000000 0.000000 0.000000 0.000000 0.000000 0.000000 10.000000 
R_mid_tent01 0.000000 0.000000 0.000000 0.000000 0.000000 0.000000 10.000000 
spine01 0.000000 0.000000 0.000000 0.000000 0.000000 0.000000 10.000000 
Bip01_Neck 0.000000 0.000000 0.000000 0.000000 0.000000 0.000000 10.000000 
L_humerus 0.000000 0.000000 0.000000 0.000000 0.000000 0.000000 10.000000 
R_humerus 0.000000 0.000000 0.000000 0.000000 0.000000 0.000000 10.000000 
weapon_bone 0.000000 0.000000 0.000000 0.000000 0.000000 0.000000 10.000000 
Bip01_Head 0.000000 0.000000 0.000000 0.000000 0.000000 0.000000 10.000000 
eye_left_bone 0.000000 0.000000 0.000000 0.000000 0.000000 0.000000 10.000000 
eye_right_bone 0.000000 0.000000 0.000000 0.000000 0.000000 0.000000 10.000000 
L_forearm 0.000000 0.000000 0.000000 0.000000 0.000000 0.000000 10.000000 
L_front_hand 0.000000 0.000000 0.000000 0.000000 0.000000 0.000000 10.000000 
L_weapon_bone 0.000000 0.000000 0.000000 0.000000 0.000000 0.000000 10.000000 
L_front_hand01_01 0.000000 0.000000 0.000000 0.000000 0.000000 0.000000 10.000000 
L_front_hand02_01 0.000000 0.000000 0.000000 0.000000 0.000000 0.000000 10.000000 
L_front_hand03_01 0.000000 0.000000 0.000000 0.000000 0.000000 0.000000 10.000000 
L_front_hand01_02 0.000000 0.000000 0.000000 0.000000 0.000000 0.000000 10.000000 
L_front_hand02_02 0.000000 0.000000 0.000000 0.000000 0.000000 0.000000 10.000000 
L_front_hand03_02 0.000000 0.000000 0.000000 0.000000 0.000000 0.000000 10.000000 
R_forearm 0.000000 0.000000 0.000000 0.000000 0.000000 0.000000 10.000000 
R_front_hand 0.000000 0.000000 0.000000 0.000000 0.000000 0.000000 10.000000 
R_weapon_bone 0.000000 0.000000 0.000000 0.000000 0.000000 0.000000 10.000000 
R_front_hand01_01 0.000000 0.000000 0.000000 0.000000 0.000000 0.000000 10.000000 
R_front_hand02_01 0.000000 0.000000 0.000000 0.000000 0.000000 0.000000 10.000000 
R_front_hand03_01 0.000000 0.000000 0.000000 0.000000 0.000000 0.000000 10.000000 
R_front_hand01_02 0.000000 0.000000 0.000000 0.000000 0.000000 0.000000 10.000000 
R_front_hand02_02 0.000000 0.000000 0.000000 0.000000 0.000000 0.000000 10.000000 
R_front_hand03_02 0.000000 0.000000 0.000000 0.000000 0.000000 0.000000 10.000000 
null_rope01_connect 0.000000 0.000000 0.000000 0.000000 0.000000 0.000000 10.000000 
Rope1_Seg01 0.000000 0.000000 0.000000 0.000000 0.000000 0.000000 10.000000 
Rope1_Seg02 0.000000 0.000000 0.000000 0.000000 0.000000 0.000000 10.000000 
Rope1_Seg03 0.000000 0.000000 0.000000 0.000000 0.000000 0.000000 10.000000 
Rope1_Seg04 0.000000 0.000000 0.000000 0.000000 0.000000 0.000000 10.000000 
Rope1_Seg05 0.000000 0.000000 0.000000 0.000000 0.000000 0.000000 10.000000 
Rope1_Seg06 0.000000 0.000000 0.000000 0.000000 0.000000 0.000000 10.000000 
Rope1_Seg07 0.000000 0.000000 0.000000 0.000000 0.000000 0.000000 10.000000 
Rope1_Seg09 0.000000 0.000000 0.000000 0.000000 0.000000 0.000000 10.000000 
L_mid_hand01 0.000000 0.000000 0.000000 0.000000 0.000000 0.000000 10.000000 
L_mid_hand02 0.000000 0.000000 0.000000 0.000000 0.000000 0.000000 10.000000 
L_mid_hand03 0.000000 0.000000 0.000000 0.000000 0.000000 0.000000 10.000000 
null_rope02_connect 0.000000 0.000000 0.000000 0.000000 0.000000 0.000000 10.000000 
Rope2_Seg01 0.000000 0.000000 0.000000 0.000000 0.000000 0.000000 10.000000 
Rope2_Seg02 0.000000 0.000000 0.000000 0.000000 0.000000 0.000000 10.000000 
Rope2_Seg03 0.000000 0.000000 0.000000 0.000000 0.000000 0.000000 10.000000 
Rope2_Seg04 0.000000 0.000000 0.000000 0.000000 0.000000 0.000000 10.000000 
Rope2_Seg05 0.000000 0.000000 0.000000 0.000000 0.000000 0.000000 10.000000 
Rope2_Seg06 0.000000 0.000000 0.000000 0.000000 0.000000 0.000000 10.000000 
Rope2_Seg07 0.000000 0.000000 0.000000 0.000000 0.000000 0.000000 10.000000 
Rope2_Seg09 0.000000 0.000000 0.000000 0.000000 0.000000 0.000000 10.000000 
R_mid_hand01 0.000000 0.000000 0.000000 0.000000 0.000000 0.000000 10.000000 
R_mid_hand02 0.000000 0.000000 0.000000 0.000000 0.000000 0.000000 10.000000 
R_mid_hand03 0.000000 0.000000 0.000000 0.000000 0.000000 0.000000 10.000000 
spine02 0.000000 0.000000 0.000000 0.000000 0.000000 0.000000 10.000000 
spine03 0.000000 0.000000 0.000000 0.000000 0.000000 0.000000 10.000000 
pelvis 0.000000 0.000000 0.000000 0.000000 0.000000 0.000000 10.000000 
null_rope03_connect 0.000000 0.000000 0.000000 0.000000 0.000000 0.000000 10.000000 
null_rope04_connect 0.000000 0.000000 0.000000 0.000000 0.000000 0.000000 10.000000 
Rope3_Seg01 0.000000 0.000000 0.000000 0.000000 0.000000 0.000000 10.000000 
Rope3_Seg02 0.000000 0.000000 0.000000 0.000000 0.000000 0.000000 10.000000 
Rope3_Seg03 0.000000 0.000000 0.000000 0.000000 0.000000 0.000000 10.000000 
Rope3_Seg04 0.000000 0.000000 0.000000 0.000000 0.000000 0.000000 10.000000 
Rope3_Seg05 0.000000 0.000000 0.000000 0.000000 0.000000 0.000000 10.000000 
Rope3_Seg06 0.000000 0.000000 0.000000 0.000000 0.000000 0.000000 10.000000 
Rope3_Seg07 0.000000 0.000000 0.000000 0.000000 0.000000 0.000000 10.000000 
Rope3_Seg08 0.000000 0.000000 0.000000 0.000000 0.000000 0.000000 10.000000 
Rope3_Seg09 0.000000 0.000000 0.000000 0.000000 0.000000 0.000000 10.000000 
R_rear_hand01 0.000000 0.000000 0.000000 0.000000 0.000000 0.000000 10.000000 
R_rear_hand02 0.000000 0.000000 0.000000 0.000000 0.000000 0.000000 10.000000 
R_rear_hand03 0.000000 0.000000 0.000000 0.000000 0.000000 0.000000 10.000000 
Rope4_Seg01 0.000000 0.000000 0.000000 0.000000 0.000000 0.000000 10.000000 
Rope4_Seg02 0.000000 0.000000 0.000000 0.000000 0.000000 0.000000 10.000000 
Rope4_Seg03 0.000000 0.000000 0.000000 0.000000 0.000000 0.000000 10.000000 
Rope4_Seg04 0.000000 0.000000 0.000000 0.000000 0.000000 0.000000 10.000000 
Rope4_Seg05 0.000000 0.000000 0.000000 0.000000 0.000000 0.000000 10.000000 
Rope4_Seg06 0.000000 0.000000 0.000000 0.000000 0.000000 0.000000 10.000000 
Rope4_Seg07 0.000000 0.000000 0.000000 0.000000 0.000000 0.000000 10.000000 
Rope4_Seg08 0.000000 0.000000 0.000000 0.000000 0.000000 0.000000 10.000000 
Rope4_Seg09 0.000000 0.000000 0.000000 0.000000 0.000000 0.000000 10.000000 
L_rear_hand01 0.000000 0.000000 0.000000 0.000000 0.000000 0.000000 10.000000 
L_rear_hand02 0.000000 0.000000 0.000000 0.000000 0.000000 0.000000 10.000000 
L_rear_hand03 0.000000 0.000000 0.000000 0.000000 0.000000 0.000000 10.000000 
#Beginning of Data. Separated by tabs
#Fr	Tx	Ty	Tz	Rx	Ry	Rz	SF
[MASTER]
39 -2118.891357 3147.117676 1289.797852 0.001660 0.001660 0.001660 4007.197266
40 -1906.067993 3361.219727 1206.871826 0.001660 0.001660 0.001660 4048.139404
[root]
39 -276.048737 -128.775253 572.900696 -173.118393 -7.273904 -71.011520 648.846069
40 -81.181358 -190.859894 565.789368 -174.600327 -3.482523 -75.344261 602.607300
[chest]
39 -84.512650 -34.090519 0.000000 -70.873314 -29.789726 -161.898819 91.129311
40 -84.512650 -34.090519 0.000000 -73.918465 -29.213280 -160.657059 91.129311
[L_mid_tent01]
39 27.298948 22.179003 -249.918793 -3.429566 14.629904 64.476021 252.381729
40 27.298944 22.179001 -249.918793 -3.050034 14.535214 65.829865 252.381729
[R_mid_tent01]
39 23.228794 24.509907 226.238495 167.526581 -1.632929 54.014809 228.744751
40 23.228794 24.509907 226.238495 165.067123 7.170180 60.964916 228.744751
[spine01]
39 -0.361383 -0.195265 0.000000 0.001952 0.001304 22.493923 0.410763
40 -0.361383 -0.195265 0.000000 0.001951 0.001305 22.455523 0.410763
[Bip01_Neck]
39 165.484543 71.581718 0.000119 176.643677 -1.657967 43.431911 180.302734
40 165.484543 71.581718 0.000119 176.643677 -1.657967 43.431911 180.302734
[L_humerus]
39 -13.983130 -135.272980 -120.471481 160.855927 61.694622 -107.031898 181.680161
40 -13.983130 -135.272980 -120.471481 160.707779 61.785358 -107.182961 181.680161
[R_humerus]
39 -13.983309 -135.273102 125.287651 -145.395554 -49.064949 -129.038361 184.909012
40 -13.983309 -135.273102 125.287651 -147.032959 -50.295132 -126.502716 184.909012
[weapon_bone]
39 235.964890 -300.705902 0.000000 0.000000 -89.951546 -128.212341 382.234833
40 235.964890 -300.705902 0.000000 0.000000 -89.951546 -128.212341 382.234833
[Bip01_Head]
39 213.330688 186.031982 7.693482 6.223659 6.148637 -43.832703 283.155548
40 213.334351 186.021637 7.827761 7.668435 6.151663 -43.833042 283.155212
[eye_left_bone]
39 -24.626970 125.451866 -64.772606 0.000000 -90.000000 -99.840431 143.318359
40 -24.626970 125.451866 -64.772606 0.000000 -90.000000 -99.840431 143.318359
[eye_right_bone]
39 -24.626970 125.451866 64.327362 0.000000 -89.965736 80.156380 143.117676
40 -24.626970 125.451866 64.327362 0.000000 -89.965736 80.156380 143.117676
[L_forearm]
39 322.776093 0.000000 -0.000119 0.000281 -0.002331 -103.751656 322.776093
40 322.776093 0.000000 -0.000119 0.000288 -0.002330 -104.111320 322.776093
[L_front_hand]
39 241.149185 -0.042021 -3.300071 -105.490540 -1.835781 -27.423635 241.171753
40 241.149185 -0.042021 -3.300071 -105.490540 -1.835781 -27.423635 241.171753
[L_weapon_bone]
39 156.183838 0.000000 0.000000 0.000014 0.000007 0.000001 156.183838
40 156.183838 0.000000 0.000000 0.000014 0.000007 0.000001 156.183838
[L_front_hand01_01]
39 86.095154 20.947098 -0.655860 -0.366594 -0.477154 75.385574 88.609184
40 86.095154 20.947098 -0.655860 -0.366594 -0.477154 75.385574 88.609184
[L_front_hand02_01]
39 86.935165 -11.437475 24.513514 154.399796 -59.883835 -61.369587 91.046425
40 86.935165 -11.437475 24.513514 154.399796 -59.883835 -61.369587 91.046425
[L_front_hand03_01]
39 86.637497 -14.123976 -20.424902 -153.913849 58.118122 -62.702866 90.126129
40 86.637497 -14.123976 -20.424902 -153.913849 58.118122 -62.702866 90.126129
[L_front_hand01_02]
39 71.020905 -0.000179 0.000030 0.000334 -0.002323 -106.379684 71.020905
40 71.020905 -0.000179 0.000030 0.000334 -0.002323 -106.379684 71.020905
[L_front_hand02_02]
39 71.020927 -0.000119 0.000060 0.000334 -0.002323 -106.379684 71.020927
40 71.020927 -0.000119 0.000060 0.000334 -0.002323 -106.379684 71.020927
[L_front_hand03_02]
39 71.020905 -0.000060 0.000060 0.000334 -0.002323 -106.379684 71.020905
40 71.020905 -0.000060 0.000060 0.000334 -0.002323 -106.379684 71.020905
[R_forearm]
39 322.776428 -0.000060 0.000030 0.207053 0.041648 -102.348236 322.776428
40 322.776428 -0.000060 0.000030 0.207365 0.042857 -102.711418 322.776428
[R_front_hand]
39 238.847015 -0.006795 2.210259 15.488859 -10.646103 -26.316046 238.857239
40 238.847015 -0.006795 2.210259 15.488863 -10.646105 -26.316048 238.857239
[R_weapon_bone]
39 155.664093 0.002503 -0.000030 0.003487 0.001180 -90.988930 155.664078
40 155.664093 0.002503 -0.000030 0.003487 0.001180 -90.988930 155.664078
[R_front_hand01_01]
39 87.624611 14.231146 22.918642 -154.633499 -59.950619 61.746044 91.683487
40 87.624611 14.231146 22.918642 -154.633499 -59.950619 61.746044 91.683487
[R_front_hand02_01]
39 89.356956 14.367283 -19.491137 154.602661 58.302849 63.744389 92.579636
40 89.356956 14.367283 -19.491137 154.602661 58.302849 63.744389 92.579636
[R_front_hand03_01]
39 87.286232 -22.307278 -0.143439 0.162155 -0.423168 -75.767921 90.091743
40 87.286232 -22.307278 -0.143439 0.162155 -0.423168 -75.767921 90.091743
[R_front_hand01_02]
39 71.020905 0.000060 0.000119 0.002323 -0.000334 106.381714 71.020905
40 71.020905 0.000060 0.000119 0.002323 -0.000334 106.381714 71.020905
[R_front_hand02_02]
39 71.020844 -0.000030 -0.000119 0.002323 -0.000334 106.381714 71.020836
40 71.020844 -0.000030 -0.000119 0.002323 -0.000334 106.381714 71.020836
[R_front_hand03_02]
39 71.020905 0.000000 0.000030 0.002323 -0.000334 106.381714 71.020905
40 71.020905 0.000000 0.000030 0.002323 -0.000334 106.381714 71.020905
[null_rope01_connect]
39 328.732483 0.000000 -0.000238 -167.620285 4.009595 -136.177139 328.732483
40 328.732483 0.000000 -0.000238 -171.293198 7.144500 -141.442047 328.732483
[Rope1_Seg01]
39 -0.000026 -0.000012 0.000153 -92.752510 -77.654305 -154.865921 0.000155
40 -0.000027 -0.000011 0.000153 -111.027809 -61.297409 -133.922928 0.000155
[Rope1_Seg02]
39 139.999863 -0.000179 0.000000 5.286328 3.532012 6.572739 139.999863
40 139.999863 -0.000179 0.000000 16.198036 6.399625 10.063729 139.999863
[Rope1_Seg03]
39 139.999924 0.000060 -0.000060 9.094060 6.182135 9.451152 139.999924
40 139.999924 0.000060 -0.000060 20.172939 11.074103 10.017545 139.999924
[Rope1_Seg04]
39 139.999924 -0.000060 -0.000119 18.390671 13.961243 15.478288 139.999924
40 139.999924 -0.000060 -0.000119 16.032316 14.364530 6.072485 139.999924
[Rope1_Seg05]
39 139.999832 0.000119 -0.000060 13.488664 15.016198 9.719531 139.999832
40 139.999832 0.000119 -0.000060 2.453529 3.158285 0.455284 139.999832
[Rope1_Seg06]
39 139.999954 0.000119 -0.000060 2.124496 2.002716 2.557164 139.999954
40 139.999954 0.000119 -0.000060 0.259032 0.322967 0.071619 139.999954
[Rope1_Seg07]
39 139.999985 0.000060 0.000000 3.705220 4.734316 3.092025 139.999985
40 139.999985 0.000060 0.000000 0.997432 1.390328 0.132465 139.999985
[Rope1_Seg09]
39 121.602913 0.000119 -0.000089 -89.793175 -1.359789 0.847147 121.602913
40 121.602913 0.000119 -0.000089 -89.793175 -1.359789 0.847147 121.602913
[L_mid_hand01]
39 103.859421 1.038730 8.195221 130.544373 -67.584534 -38.866943 104.187431
40 103.859421 1.038730 8.195221 130.544373 -67.584534 -38.866943 104.187431
[L_mid_hand02]
39 105.572853 -4.139662 -10.864139 -168.923172 43.409309 -73.498886 106.211075
40 105.572853 -4.139662 -10.864139 -168.923172 43.409309 -73.498894 106.211075
[L_mid_hand03]
39 104.641464 17.579376 -3.913581 -6.012627 17.808174 74.893669 106.179977
40 104.641464 17.579376 -3.913581 -6.012626 17.808172 74.893661 106.179977
[null_rope02_connect]
39 328.732849 0.000179 -0.000119 -3.787597 -0.497950 124.152512 328.732849
40 328.732849 0.000179 -0.000119 -3.979758 -9.316394 137.363800 328.732849
[Rope2_Seg01]
39 0.000065 0.000246 0.000105 -142.020721 43.041183 143.463364 0.000275
40 0.000065 0.000250 0.000108 -109.990196 33.047817 151.845352 0.000280
[Rope2_Seg02]
39 139.999741 -0.000060 -0.000119 6.068456 -1.579699 -2.410210 139.999756
40 139.999741 -0.000060 -0.000119 27.599495 -9.981241 -9.758948 139.999756
[Rope2_Seg03]
39 140.000107 0.000030 0.000000 8.803908 -2.865756 -3.499237 140.000107
40 140.000107 0.000030 0.000000 26.362305 -30.621193 -13.976979 140.000107
[Rope2_Seg04]
39 139.999802 0.000000 -0.000060 13.517502 -6.356960 -5.661989 139.999802
40 139.999802 0.000000 -0.000060 1.145829 -30.706974 5.516134 139.999802
[Rope2_Seg05]
39 139.999985 -0.000060 0.000119 22.418470 -28.149916 -12.304715 139.999985
40 139.999985 -0.000060 0.000119 -0.623088 8.641869 9.891722 139.999985
[Rope2_Seg06]
39 139.999893 -0.000030 -0.000119 13.634598 -23.087036 -16.033768 139.999893
40 139.999893 -0.000030 -0.000119 -0.512156 1.165218 3.483923 139.999893
[Rope2_Seg07]
39 139.999893 0.000060 -0.000060 3.525261 -5.613236 -9.803100 139.999893
40 139.999893 0.000060 -0.000060 -0.276517 0.228809 1.885512 139.999893
[Rope2_Seg09]
39 121.338966 0.000089 -0.000060 33.793236 -1.359788 -0.847141 121.338966
40 121.338966 0.000089 -0.000060 33.793236 -1.359788 -0.847141 121.338966
[R_mid_hand01]
39 104.680779 11.144459 -10.335981 -16.212063 45.237240 70.462852 105.778534
40 104.680779 11.144459 -10.335981 -16.212063 45.237247 70.462852 105.778534
[R_mid_hand02]
39 104.070427 2.443552 8.231699 49.067387 -67.749794 39.286469 104.424065
40 104.070427 2.443552 8.231699 49.067368 -67.749771 39.286453 104.424065
[R_mid_hand03]
39 106.028137 -11.221827 -5.996406 -177.101105 15.551026 -76.585571 106.788818
40 106.028137 -11.221827 -5.996406 -177.101105 15.551026 -76.585571 106.788818
[spine02]
39 129.756927 0.001550 0.000119 -0.220510 -4.055558 -4.714923 129.756927
40 129.756927 0.001550 0.000119 -0.183591 -4.057175 -5.237213 129.756927
[spine03]
39 78.613937 0.081682 -4.898963 1.546281 3.987055 11.373730 78.766472
40 78.613937 0.081679 -4.898962 1.568441 3.978631 11.696719 78.766472
[pelvis]
39 169.435242 0.051022 0.000000 -0.026029 -0.190490 3.756470 169.435257
40 169.435242 0.051022 0.000000 -0.028773 -0.190283 4.414945 169.435257
[null_rope03_connect]
39 -1.257226 -2.466202 137.391083 -175.410904 -9.403777 -103.783302 137.418976
40 -1.257226 -2.466202 137.391083 -178.009354 -6.676045 -108.569717 137.418976
[null_rope04_connect]
39 -1.259640 -2.480268 -137.844437 -175.410904 -9.403777 -103.783302 137.872513
40 -1.259640 -2.480268 -137.844437 -178.009354 -6.676045 -108.569717 137.872513
[Rope3_Seg01]
39 0.000000 0.000000 0.000000 15.275537 19.455601 -85.728668 0.000000
40 0.000000 0.000000 0.000000 15.355623 0.387738 -102.088211 0.000000
[Rope3_Seg02]
39 139.999924 -0.000119 0.000060 -6.042498 4.780911 -29.551817 139.999924
40 139.999924 -0.000119 0.000060 -5.284481 -3.450795 -20.511633 139.999924
[Rope3_Seg03]
39 139.999924 -0.000119 0.000119 -4.837075 4.770915 -9.400220 139.999924
40 139.999924 -0.000119 0.000119 -5.790751 -0.661763 -10.433248 139.999924
[Rope3_Seg04]
39 139.999924 0.000119 0.000000 0.850390 -9.898515 -16.635962 139.999924
40 139.999924 0.000119 0.000000 -12.583766 1.610076 -11.730144 139.999924
[Rope3_Seg05]
39 139.999924 -0.000238 0.000060 2.408039 -8.614720 -11.847767 139.999924
40 139.999924 -0.000238 0.000060 -6.843046 1.671967 -4.405262 139.999924
[Rope3_Seg06]
39 139.999893 -0.000119 -0.000060 0.386303 -2.938174 -4.570889 139.999893
40 139.999893 -0.000119 -0.000060 -3.230973 0.985398 -1.965772 139.999893
[Rope3_Seg07]
39 139.999771 0.000060 -0.000119 0.382650 -1.913050 -2.962999 139.999771
40 139.999771 0.000060 -0.000119 -2.118798 0.739571 -1.293220 139.999771
[Rope3_Seg08]
39 139.999985 -0.000060 0.000000 0.415621 -1.169093 -1.788144 139.999985
40 139.999985 -0.000060 0.000000 -1.159039 0.488332 -0.784752 139.999985
[Rope3_Seg09]
39 90.185997 -0.000179 -0.000060 89.793228 -1.359877 -0.847183 90.185997
40 90.185997 -0.000179 -0.000060 89.793228 -1.359877 -0.847183 90.185997
[R_rear_hand01]
39 103.366196 -6.073594 -10.757982 172.856537 -15.220672 -75.434441 104.101845
40 103.366196 -6.073594 -10.757982 172.856537 -15.220671 -75.434441 104.101845
[R_rear_hand02]
39 100.509819 12.039542 -7.992327 -12.874834 36.868500 72.167229 101.543350
40 100.509819 12.039542 -7.992327 -12.874829 36.868488 72.167213 101.543350
[R_rear_hand03]
39 101.539970 5.215704 5.435467 71.484627 -71.816643 21.513817 101.819031
40 101.539970 5.215704 5.435467 71.484581 -71.816628 21.513813 101.819031
[Rope4_Seg01]
39 -0.000019 -0.000211 -0.000153 -84.570427 -74.058838 -129.467545 0.000261
40 -0.000019 -0.000216 -0.000153 -93.056099 -54.305790 -117.687386 0.000265
[Rope4_Seg02]
39 139.999985 0.000060 0.000119 1.056609 7.952565 10.421284 139.999985
40 139.999985 0.000060 0.000119 0.810436 11.088868 9.746651 139.999985
[Rope4_Seg03]
39 139.999924 0.000000 -0.000238 -0.009610 9.887076 10.963498 139.999924
40 139.999924 0.000000 -0.000238 0.002812 10.135244 7.464748 139.999924
[Rope4_Seg04]
39 139.999985 0.000000 0.000119 -1.481894 10.175545 10.810788 139.999985
40 139.999985 0.000000 0.000119 -1.411395 7.320509 7.479955 139.999985
[Rope4_Seg05]
39 139.999802 -0.000060 -0.000119 -7.627551 1.071035 13.139818 139.999802
40 139.999802 -0.000060 -0.000119 -2.499681 1.137673 4.861083 139.999802
[Rope4_Seg06]
39 139.999924 0.000000 0.000060 -5.936879 -2.153730 7.722094 139.999924
40 139.999924 0.000000 0.000060 -1.196463 0.455359 2.232627 139.999924
[Rope4_Seg07]
39 139.999802 0.000000 0.000000 -3.134856 -0.747243 4.292905 139.999802
40 139.999802 0.000000 0.000000 -0.664747 0.504533 1.423160 139.999802
[Rope4_Seg08]
39 139.999924 0.000000 0.000119 -3.459656 -0.580363 2.523074 139.999924
40 139.999924 0.000000 0.000119 -1.959701 0.293584 0.872158 139.999924
[Rope4_Seg09]
39 90.185791 0.000060 0.000060 -135.617828 2.228885 0.850567 90.185791
40 90.185791 0.000060 0.000060 -135.617828 2.228885 0.850567 90.185791
[L_rear_hand01]
39 101.696655 -8.392275 -7.654577 -12.874827 -36.868492 107.832764 102.329041
40 101.696655 -8.392275 -7.654577 -12.874829 -36.868488 107.832764 102.329041
[L_rear_hand02]
39 102.726799 -1.568258 5.773216 71.484619 71.816643 158.486160 102.900848
40 102.726799 -1.568258 5.773216 71.484581 71.816628 158.486160 102.900848
[L_rear_hand03]
39 104.552910 9.721220 -10.420293 -177.714203 -24.565958 -106.089043 105.519653
40 104.552910 9.721220 -10.420293 -177.714203 -24.565960 -106.089035 105.519653
